ffmpeg started on 2016-12-04 at 08:57:33
Report written to "Output/x264/results/ffmpeg/crowd_run_2160p50superfast2500k.log"
Command line:
Tools/ffmpeg/ffmpeg -benchmark -y -i Input/y4m/crowd_run_2160p50.y4m -c:v libx264 -preset superfast -b:v 2500k -an Output/x264/encoded/crowd_run_2160p50superfast2500k.mkv
ffmpeg version N-82227-gdb23fde Copyright (c) 2000-2016 the FFmpeg developers
  built with gcc 5.4.0 (Ubuntu 5.4.0-6ubuntu1~16.04.2) 20160609
  configuration: --prefix=/home/jaroslav/ffmpeg_build --pkg-config-flags=--static --extra-cflags=-I/home/jaroslav/ffmpeg_build/include --extra-ldflags=-L/home/jaroslav/ffmpeg_build/lib --bindir=/home/jaroslav/bin --enable-gpl --enable-libass --enable-libfdk-aac --enable-libfreetype --enable-libmp3lame --enable-libopus --enable-libtheora --enable-libvorbis --enable-libvpx --enable-libx264 --enable-libx265 --enable-nvenc --enable-libmfx --enable-libxvid --enable-libgsm --enable-libopencore-amrnb --enable-version3 --enable-nonfree
  libavutil      55. 35.100 / 55. 35.100
  libavcodec     57. 66.101 / 57. 66.101
  libavformat    57. 57.100 / 57. 57.100
  libavdevice    57.  2.100 / 57.  2.100
  libavfilter     6. 66.100 /  6. 66.100
  libswscale      4.  3.100 /  4.  3.100
  libswresample   2.  4.100 /  2.  4.100
  libpostproc    54.  2.100 / 54.  2.100
Input #0, yuv4mpegpipe, from 'Input/y4m/crowd_run_2160p50.y4m':
  Duration: 00:00:10.00, start: 0.000000, bitrate: 4976642 kb/s
    Stream #0:0: Video: rawvideo (I420 / 0x30323449), yuv420p(progressive), 3840x2160, SAR 1:1 DAR 16:9, 50 fps, 50 tbr, 50 tbn, 50 tbc
[libx264 @ 0x29a01c0] using SAR=1/1
[libx264 @ 0x29a01c0] using cpu capabilities: MMX2 SSE2Fast SSSE3 SSE4.2 AVX FMA3 AVX2 LZCNT BMI2
[libx264 @ 0x29a01c0] profile High, level 5.2
[libx264 @ 0x29a01c0] 264 - core 148 - H.264/MPEG-4 AVC codec - Copyleft 2003-2016 - http://www.videolan.org/x264.html - options: cabac=1 ref=1 deblock=1:0:0 analyse=0x3:0x3 me=dia subme=1 psy=1 psy_rd=1.00:0.00 mixed_ref=0 me_range=16 chroma_me=1 trellis=0 8x8dct=1 cqm=0 deadzone=21,11 fast_pskip=1 chroma_qp_offset=0 threads=6 lookahead_threads=1 sliced_threads=0 nr=0 decimate=1 interlaced=0 bluray_compat=0 constrained_intra=0 bframes=3 b_pyramid=2 b_adapt=1 b_bias=0 direct=1 weightb=1 open_gop=0 weightp=1 keyint=250 keyint_min=25 scenecut=40 intra_refresh=0 rc=abr mbtree=0 bitrate=2500 ratetol=1.0 qcomp=0.60 qpmin=0 qpmax=69 qpstep=4 ip_ratio=1.40 pb_ratio=1.30 aq=1:1.00
Output #0, matroska, to 'Output/x264/encoded/crowd_run_2160p50superfast2500k.mkv':
  Metadata:
    encoder         : Lavf57.57.100
    Stream #0:0: Video: h264 (libx264) (H264 / 0x34363248), yuv420p, 3840x2160 [SAR 1:1 DAR 16:9], q=-1--1, 2500 kb/s, 50 fps, 1k tbn, 50 tbc
    Metadata:
      encoder         : Lavc57.66.101 libx264
    Side data:
      cpb: bitrate max/min/avg: 0/0/2500000 buffer size: 0 vbv_delay: -1
Stream mapping:
  Stream #0:0 -> #0:0 (rawvideo (native) -> h264 (libx264))
Press [q] to stop, [?] for help
frame=   23 fps=0.0 q=60.0 size=       1kB time=00:00:00.14 bitrate=  41.6kbits/s speed=0.263x    frame=   41 fps= 39 q=63.0 size=       1kB time=00:00:00.50 bitrate=  11.7kbits/s speed=0.482x    frame=   59 fps= 36 q=63.0 size=       1kB time=00:00:00.86 bitrate=   6.8kbits/s speed=0.53x    frame=   77 fps= 36 q=64.0 size=       1kB time=00:00:01.22 bitrate=   4.8kbits/s speed=0.575x    frame=   95 fps= 35 q=63.0 size=       1kB time=00:00:01.58 bitrate=   3.7kbits/s speed=0.584x    frame=  114 fps= 35 q=61.0 size=       1kB time=00:00:01.96 bitrate=   3.0kbits/s speed=0.61x    frame=  131 fps= 35 q=62.0 size=       1kB time=00:00:02.30 bitrate=   2.5kbits/s speed=0.608x    frame=  149 fps= 35 q=64.0 size=       1kB time=00:00:02.66 bitrate=   2.2kbits/s speed=0.621x    frame=  167 fps= 34 q=63.0 size=       1kB time=00:00:03.02 bitrate=   1.9kbits/s speed=0.62x    frame=  186 fps= 35 q=61.0 size=       1kB time=00:00:03.40 bitrate=   1.7kbits/s speed=0.632x    frame=  203 fps= 34 q=63.0 size=       1kB time=00:00:03.74 bitrate=   1.6kbits/s speed=0.629x    frame=  222 fps= 34 q=62.0 size=       1kB time=00:00:04.12 bitrate=   1.4kbits/s speed=0.638x    frame=  239 fps= 34 q=63.0 size=       1kB time=00:00:04.46 bitrate=   1.3kbits/s speed=0.634x    frame=  258 fps= 34 q=61.0 size=       1kB time=00:00:04.84 bitrate=   1.2kbits/s speed=0.642x    frame=  277 fps= 34 q=63.0 size=    1607kB time=00:00:05.22 bitrate=2522.2kbits/s speed=0.642x    frame=  295 fps= 34 q=64.0 size=    1607kB time=00:00:05.58 bitrate=2359.5kbits/s speed=0.647x    frame=  313 fps= 34 q=63.0 size=    1607kB time=00:00:05.94 bitrate=2216.6kbits/s speed=0.645x    frame=  330 fps= 34 q=64.0 size=    1607kB time=00:00:06.28 bitrate=2096.6kbits/s speed=0.646x    frame=  349 fps= 34 q=63.0 size=    1607kB time=00:00:06.66 bitrate=1977.0kbits/s speed=0.646x    frame=  367 fps= 34 q=64.0 size=    1607kB time=00:00:07.02 bitrate=1875.6kbits/s speed=0.649x    frame=  385 fps= 34 q=63.0 size=    1607kB time=00:00:07.38 bitrate=1784.1kbits/s speed=0.648x    frame=  403 fps= 34 q=64.0 size=    1607kB time=00:00:07.74 bitrate=1701.1kbits/s speed=0.651x    frame=  421 fps= 34 q=63.0 size=    1607kB time=00:00:08.10 bitrate=1625.6kbits/s speed=0.649x    frame=  439 fps= 34 q=65.0 size=    1607kB time=00:00:08.46 bitrate=1556.4kbits/s speed=0.651x    frame=  456 fps= 34 q=62.0 size=    1607kB time=00:00:08.80 bitrate=1496.3kbits/s speed=0.652x    frame=  473 fps= 34 q=64.0 size=    1607kB time=00:00:09.14 bitrate=1440.6kbits/s speed=0.649x    frame=  490 fps= 34 q=65.0 size=    1607kB time=00:00:09.48 bitrate=1388.9kbits/s speed=0.65x    frame=  500 fps= 33 q=-1.0 Lsize=    3231kB time=00:00:09.94 bitrate=2662.9kbits/s speed=0.658x    
video:3227kB audio:0kB subtitle:0kB other streams:0kB global headers:0kB muxing overhead: 0.134267%
bench: utime=35.844s
bench: maxrss=894000kB
[libx264 @ 0x29a01c0] frame I:2     Avg QP:51.00  size: 44902
[libx264 @ 0x29a01c0] frame P:126   Avg QP:51.00  size: 17466
[libx264 @ 0x29a01c0] frame B:372   Avg QP:51.00  size:  2724
[libx264 @ 0x29a01c0] consecutive B-frames:  0.8%  0.0%  0.0% 99.2%
[libx264 @ 0x29a01c0] mb I  I16..4: 74.3% 25.7%  0.0%
[libx264 @ 0x29a01c0] mb P  I16..4:  7.8%  2.3%  0.0%  P16..4: 12.1%  0.0%  0.0%  0.0%  0.0%    skip:77.8%
[libx264 @ 0x29a01c0] mb B  I16..4:  0.0%  0.0%  0.0%  B16..8:  3.1%  0.0%  0.0%  direct: 0.3%  skip:96.6%  L0:46.0% L1:53.9% BI: 0.1%
[libx264 @ 0x29a01c0] final ratefactor: 56.16
[libx264 @ 0x29a01c0] 8x8 transform intra:22.8% inter:67.8%
[libx264 @ 0x29a01c0] coded y,uvDC,uvAC intra: 3.8% 53.8% 0.0% inter: 0.1% 1.5% 0.0%
[libx264 @ 0x29a01c0] i16 v,h,dc,p: 64% 23% 11%  1%
[libx264 @ 0x29a01c0] i8 v,h,dc,ddl,ddr,vr,hd,vl,hu: 13% 11% 35% 11%  4%  6%  5%  6%  8%
[libx264 @ 0x29a01c0] i8c dc,h,v,p: 97%  1%  2%  0%
[libx264 @ 0x29a01c0] Weighted P-Frames: Y:0.8% UV:0.0%
[libx264 @ 0x29a01c0] kb/s:2643.13
